<?xml version="1.0" encoding="utf-8"?>
<!-- Generator: Adobe Illustrator 25.2.1, SVG Export Plug-In . SVG Version: 6.00 Build 0)  -->
<svg version="1.1" id="Layer_1" xmlns="http://www.w3.org/2000/svg" xmlns:xlink="http://www.w3.org/1999/xlink" x="0px" y="0px"
	 viewBox="0 0 70 100" style="enable-background:new 0 0 70 100;" xml:space="preserve">
<style type="text/css">
	.st0{fill:#FFFFFF;}
</style>
<g>
	<g>
		<g>
			<path class="st0" d="M63.7,32.4c-0.2-0.5-0.8-0.9-1.4-0.9H46.1l7.8-26.2c0.2-0.7-0.1-1.4-0.7-1.8c-0.6-0.3-1.4-0.2-1.9,0.4
				L19.6,44.1c-0.4,0.5-0.4,1.1-0.2,1.6s0.8,0.8,1.3,0.8H37l-9.3,26.1c-0.2,0.7,0,1.4,0.7,1.8c0.2,0.1,0.5,0.2,0.7,0.2
				c0.4,0,0.9-0.2,1.2-0.5L63.5,34C63.9,33.5,64,32.9,63.7,32.4z M33.3,65.7l7.2-20.2c0.2-0.5,0.1-1-0.2-1.4s-0.7-0.6-1.2-0.6H23.9
				l24.9-31.6l-6.1,20.6c-0.1,0.5,0,0.9,0.2,1.3c0.3,0.4,0.7,0.6,1.2,0.6h15.1L33.3,65.7z M22.5,62.7l1.5,3c0.2,0.5,0.7,0.8,1.2,0.8
				c0.2,0,0.4,0,0.6-0.1c0.7-0.3,0.9-1.1,0.6-1.8l-1.5-3c-0.3-0.7-1.1-0.9-1.8-0.6C22.4,61.2,22.1,62,22.5,62.7z M46.5,78.7
				l-3.2-1.1c-0.7-0.2-1.5,0.1-1.7,0.8c-0.2,0.7,0.1,1.5,0.8,1.7l3.2,1.1c0.1,0.1,0.3,0.1,0.4,0.1c0.6,0,1.1-0.3,1.3-0.9
				C47.6,79.7,47.2,78.9,46.5,78.7z M26.8,79.5c-0.6-0.4-1.5-0.1-1.8,0.5l-3.4,5.9c-0.4,0.6-0.1,1.5,0.5,1.8
				c0.2,0.1,0.4,0.2,0.7,0.2c0.5,0,0.9-0.2,1.2-0.7l3.4-5.9C27.6,80.7,27.4,79.9,26.8,79.5z M20.8,89.9c-0.6-0.4-1.5-0.1-1.8,0.5
				l-2,3.4c-0.4,0.6-0.1,1.5,0.5,1.8c0.2,0.1,0.4,0.2,0.7,0.2c0.5,0,0.9-0.2,1.2-0.7l2-3.4C21.7,91.1,21.4,90.3,20.8,89.9z
				 M12.2,69.7l6.4,2.2C18.7,72,18.9,72,19,72c0.6,0,1.1-0.3,1.3-0.9c0.2-0.7-0.1-1.5-0.8-1.7l-6.4-2.2c-0.7-0.2-1.5,0.1-1.7,0.8
				C11.2,68.7,11.5,69.5,12.2,69.7z M52.8,81.3l-2-0.7c-0.7-0.2-1.5,0.1-1.7,0.8c-0.2,0.7,0.1,1.5,0.8,1.7l2,0.7
				c0.1,0.1,0.3,0.1,0.4,0.1c0.6,0,1.1-0.3,1.3-0.9C53.9,82.3,53.5,81.6,52.8,81.3z M53.2,63.3l-13.6,6.6c-0.7,0.3-0.9,1.1-0.6,1.8
				c0.2,0.5,0.7,0.8,1.2,0.8c0.2,0,0.4,0,0.6-0.1l13.6-6.6c0.7-0.3,0.9-1.1,0.6-1.8C54.6,63.3,53.8,63,53.2,63.3z M22.4,75.8
				c-0.3-0.7-1.1-0.9-1.8-0.6L7,81.8c-0.7,0.3-0.9,1.1-0.6,1.8c0.2,0.5,0.7,0.8,1.2,0.8c0.2,0,0.4,0,0.6-0.1l13.6-6.6
				C22.5,77.3,22.7,76.5,22.4,75.8z M34.6,80c-0.3-0.7-1.1-0.9-1.8-0.6s-0.9,1.1-0.6,1.8l3.6,7.4c0.2,0.5,0.7,0.8,1.2,0.8
				c0.2,0,0.4,0,0.6-0.1c0.7-0.3,0.9-1.1,0.6-1.8L34.6,80z M20.5,58.7c0.2,0.5,0.7,0.8,1.2,0.8c0.2,0,0.4,0,0.6-0.1
				c0.7-0.3,0.9-1.1,0.6-1.8l-2.9-6c-0.3-0.7-1.1-0.9-1.8-0.6c-0.7,0.3-0.9,1.1-0.6,1.8L20.5,58.7z"/>
		</g>
	</g>
</g>
</svg>
